<svg xmlns="http://www.w3.org/2000/svg" viewBox="0 0 31 31" width="24" height="24">
    <g transform="matrix(1,0,0,1,-220,0)">
        <path fill="currentColor" d="M223,8C221.896,8 221,7.104 221,6C221,4.896 221.896,4 223,4L248,4C249.104,4 250,4.896 250,6C250,7.104 249.104,8 248,8L223,8Z"/>
        <path fill="currentColor" transform="translate(0,9.29109)" d="M223,8C221.896,8 221,7.104 221,6C221,4.896 221.896,4 223,4L248,4C249.104,4 250,4.896 250,6C250,7.104 249.104,8 248,8L223,8Z"/>
        <path fill="currentColor" transform="translate(0,18.6)" d="M223,8C221.896,8 221,7.104 221,6C221,4.896 221.896,4 223,4L248,4C249.104,4 250,4.896 250,6C250,7.104 249.104,8 248,8L223,8Z"/>
    </g>
</svg>